<?xml version="1.0" standalone="no"?>
<!DOCTYPE svg PUBLIC "-//W3C//DTD SVG 20010904//EN"
 "http://www.w3.org/TR/2001/REC-SVG-20010904/DTD/svg10.dtd">
<svg version="1.0" xmlns="http://www.w3.org/2000/svg"
 width="10686.000000pt" height="3902.000000pt" viewBox="0 0 10686.000000 3902.000000"
 preserveAspectRatio="xMidYMid meet">

<g transform="translate(0.000000,3902.000000) scale(0.100000,-0.100000)"
fill="#000000" stroke="none">
<path d="M92986 33706 c-2804 -2918 -5101 -5306 -5106 -5306 -4 0 -2395 2293
-5311 5095 -2917 2802 -5307 5094 -5311 5093 -5 -2 -1813 -1882 -4018 -4178
l-4010 -4175 37 -36 c21 -20 2385 -2290 5253 -5044 2868 -2754 5241 -5033
5273 -5064 l58 -57 -5062 -5270 c-2784 -2898 -5079 -5288 -5101 -5310 l-40
-41 4177 -4012 c2297 -2207 4180 -4011 4184 -4009 5 2 2300 2388 5100 5303
2800 2915 5095 5300 5100 5300 5 0 2394 -2290 5307 -5090 2914 -2799 5303
-5091 5310 -5093 12 -3 8010 8317 8020 8342 3 8 -2073 2010 -5301 5111 l-5307
5098 75 76 c41 42 2337 2431 5102 5310 l5027 5234 -59 57 c-32 32 -1887 1814
-4123 3960 -2236 2147 -4090 3927 -4121 3957 l-56 55 -5097 -5306z"/>
</g>
</svg>
